<?xml version="1.0" standalone="no"?>
<!DOCTYPE svg PUBLIC "-//W3C//DTD SVG 20010904//EN"
 "http://www.w3.org/TR/2001/REC-SVG-20010904/DTD/svg10.dtd">
<svg version="1.0" xmlns="http://www.w3.org/2000/svg"
 width="267.000000pt" height="108.000000pt" viewBox="0 0 267.000000 108.000000"
 preserveAspectRatio="xMidYMid meet">

<g transform="translate(0.000000,108.000000) scale(0.100000,-0.100000)"
fill="#000000" stroke="none">
<path d="M528 1053 c17 -2 47 -2 65 0 17 2 3 4 -33 4 -36 0 -50 -2 -32 -4z"/>
<path d="M818 1053 c12 -2 32 -2 45 0 12 2 2 4 -23 4 -25 0 -35 -2 -22 -4z"/>
<path d="M458 1043 c6 -2 18 -2 25 0 6 3 1 5 -13 5 -14 0 -19 -2 -12 -5z"/>
<path d="M638 1043 c7 -3 16 -2 19 1 4 3 -2 6 -13 5 -11 0 -14 -3 -6 -6z"/>
<path d="M906 1036 c26 -19 10 -32 -21 -18 -14 7 -34 12 -43 12 -22 -1 57 -30
81 -30 23 0 22 27 -2 40 -29 15 -38 12 -15 -4z"/>
<path d="M720 1029 c-24 -7 -24 -7 -2 -8 12 -1 22 -7 22 -16 0 -8 4 -15 10
-15 5 0 21 -20 35 -43 45 -78 29 -183 -42 -272 -28 -35 -58 -51 -32 -17 11 15
11 15 -1 4 -8 -7 -15 -18 -15 -25 0 -17 -65 -47 -102 -47 -32 0 -45 14 -20 23
6 2 4 3 -6 1 -24 -3 -20 7 56 135 34 57 74 113 90 124 33 25 34 32 5 34 -13 0
-18 -1 -12 -3 6 -3 -3 -19 -21 -37 -17 -18 -51 -66 -75 -107 -124 -216 -170
-287 -218 -341 -49 -53 -84 -78 -66 -46 5 9 3 9 -7 -1 -8 -7 -14 -18 -14 -24
0 -6 -6 -13 -14 -16 -9 -3 -11 0 -6 8 5 9 4 11 -4 6 -6 -4 -8 -12 -5 -18 5 -8
1 -9 -10 -5 -11 5 -15 3 -10 -5 5 -7 2 -9 -9 -5 -9 3 -17 2 -19 -3 -2 -5 -28
-6 -61 -1 -47 6 -64 14 -83 37 -19 22 -23 24 -14 6 26 -54 131 -76 206 -43 61
27 169 138 223 229 38 63 45 70 56 56 32 -45 165 14 220 98 71 108 72 209 3
285 -24 26 -16 43 19 43 15 0 24 2 22 4 -10 8 -76 12 -99 5z"/>
<path d="M216 1018 c4 -6 -2 -8 -16 -3 -15 5 -20 4 -16 -4 7 -10 -6 -16 -27
-12 -5 1 -5 -4 -1 -10 5 -9 2 -10 -9 -6 -17 6 -57 -35 -57 -57 1 -6 8 2 16 17
9 16 18 27 21 24 2 -3 0 -14 -6 -25 -14 -26 -14 -52 -1 -52 6 0 10 9 10 21 0
11 5 29 11 41 14 25 84 57 128 58 45 0 37 6 -17 13 -27 3 -40 1 -36 -5z"/>
<path d="M328 1023 c7 -3 16 -2 19 1 4 3 -2 6 -13 5 -11 0 -14 -3 -6 -6z"/>
<path d="M400 1022 c6 -2 7 -8 4 -13 -3 -6 1 -18 9 -27 35 -40 49 -85 44 -138
-6 -56 -42 -138 -57 -129 -6 4 -7 -1 -3 -11 4 -11 2 -15 -4 -11 -6 4 -18 -2
-28 -13 -10 -11 -15 -20 -10 -20 4 0 2 -7 -5 -15 -7 -8 -17 -12 -23 -8 -6 3
-7 1 -3 -5 7 -11 -6 -17 -27 -13 -5 1 -5 -4 -1 -10 4 -8 -1 -9 -17 -4 -17 4
-20 4 -10 -4 15 -10 -2 -14 -84 -24 -18 -3 -11 -5 19 -6 65 -1 121 26 181 90
100 107 115 219 43 321 -16 22 -10 27 43 37 43 8 42 9 -18 7 -35 0 -58 -3 -53
-4z m-10 -336 c0 -2 -8 -10 -17 -17 -16 -13 -17 -12 -4 4 13 16 21 21 21 13z"/>
<path d="M563 1023 c9 -2 23 -2 30 0 6 3 -1 5 -18 5 -16 0 -22 -2 -12 -5z"/>
<path d="M307 996 c-4 -10 -1 -13 9 -9 7 3 14 9 14 14 0 14 -17 10 -23 -5z"/>
<path d="M647 1002 c7 -4 11 -15 9 -25 -3 -20 -46 -68 -56 -62 -4 3 -16 -5
-26 -18 l-19 -22 23 19 c28 24 28 13 1 -26 -12 -16 -56 -95 -98 -176 -91 -174
-129 -235 -140 -227 -5 2 -15 -3 -22 -13 -13 -15 -12 -16 4 -3 21 16 23 -1 2
-19 -8 -7 -15 -9 -15 -5 0 5 -9 0 -20 -10 -11 -10 -17 -22 -14 -26 5 -8 -10
-13 -29 -10 -4 0 -7 -3 -7 -9 0 -5 -7 -7 -15 -4 -8 4 -15 1 -15 -5 0 -6 -15
-12 -32 -12 -27 -1 -29 -3 -8 -6 95 -18 185 78 334 360 40 75 74 127 82 127 9
0 12 5 9 10 -3 6 -2 10 2 10 5 0 18 7 29 16 18 14 18 15 -3 4 -37 -17 -28 6
22 58 37 39 47 45 62 36 38 -23 63 -75 65 -133 1 -53 2 -53 5 -12 3 25 2 55
-1 68 -9 32 -64 93 -86 93 -10 0 -20 7 -24 15 -3 8 -11 15 -18 15 -10 0 -10
-2 -1 -8z m-337 -586 c0 -2 -8 -10 -17 -17 -16 -13 -17 -12 -4 4 13 16 21 21
21 13z"/>
<path d="M320 975 c-31 -18 -43 -19 -34 -2 4 7 3 9 -2 4 -5 -5 -9 -14 -9 -19
0 -6 -6 -13 -14 -16 -8 -3 -11 0 -7 7 5 7 1 9 -9 4 -11 -4 -13 -8 -6 -12 7 -5
-1 -18 -20 -37 -98 -93 -123 -245 -49 -293 24 -15 24 -15 -4 19 -25 31 -28 40
-23 86 10 94 75 188 165 237 l49 27 29 -21 29 -21 -28 26 c-32 30 -34 30 -67
11z"/>
<path d="M184 898 l-29 -33 33 29 c30 28 37 36 29 36 -2 0 -16 -15 -33 -32z"/>
<path d="M421 894 c0 -11 3 -14 6 -6 3 7 2 16 -1 19 -3 4 -6 -2 -5 -13z"/>
<path d="M432 845 c0 -16 2 -22 5 -12 2 9 2 23 0 30 -3 6 -5 -1 -5 -18z"/>
<path d="M130 829 c-12 -16 -21 -32 -18 -34 2 -2 13 12 26 31 28 42 21 45 -8
3z"/>
<path d="M571 774 c-12 -20 -20 -38 -18 -40 2 -2 14 14 26 36 28 50 21 53 -8
4z"/>
<path d="M421 793 c-1 -6 -4 -20 -7 -30 -5 -17 -5 -17 6 0 6 10 9 23 6 30 -3
9 -5 9 -5 0z"/>
<path d="M470 729 c-7 -11 -10 -23 -7 -25 2 -2 9 7 15 21 14 30 7 33 -8 4z"/>
<path d="M737 707 l-17 -32 20 24 c17 20 26 41 18 41 -2 0 -11 -15 -21 -33z"/>
<path d="M1164 695 c1 -29 51 -34 59 -6 3 12 2 23 -3 26 -4 3 -10 -4 -13 -15
-6 -25 -34 -26 -40 -2 -3 13 -4 12 -3 -3z"/>
<path d="M1462 539 c-28 -159 -33 -204 -18 -188 9 10 64 355 57 362 -4 4 -22
-74 -39 -174z"/>
<path d="M1868 699 c-10 -5 -18 -18 -17 -27 0 -14 2 -14 6 -2 4 8 13 20 22 27
19 15 13 16 -11 2z"/>
<path d="M1896 687 c-9 -36 -7 -67 6 -67 6 0 9 2 6 6 -3 3 -2 21 2 40 9 37 -4
58 -14 21z"/>
<path d="M445 679 c-4 -6 -5 -12 -2 -15 2 -3 7 2 10 11 7 17 1 20 -8 4z"/>
<path d="M1442 665 c0 -16 2 -22 5 -12 2 9 2 23 0 30 -3 6 -5 -1 -5 -18z"/>
<path d="M90 641 c0 -6 4 -13 10 -16 6 -3 7 1 4 9 -7 18 -14 21 -14 7z"/>
<path d="M400 590 c-11 -22 -18 -40 -15 -40 2 0 14 18 25 40 11 22 18 40 15
40 -2 0 -14 -18 -25 -40z"/>
<path d="M793 623 c9 -2 23 -2 30 0 6 3 -1 5 -18 5 -16 0 -22 -2 -12 -5z"/>
<path d="M1068 623 c6 -2 18 -2 25 0 6 3 1 5 -13 5 -14 0 -19 -2 -12 -5z"/>
<path d="M1348 623 c6 -2 18 -2 25 0 6 3 1 5 -13 5 -14 0 -19 -2 -12 -5z"/>
<path d="M1431 622 c-1 -9 -8 -11 -23 -7 l-23 7 23 -17 c26 -19 36 -15 29 12
-3 10 -5 12 -6 5z"/>
<path d="M1643 623 c9 -2 25 -2 35 0 9 3 1 5 -18 5 -19 0 -27 -2 -17 -5z"/>
<path d="M618 613 c7 -3 16 -2 19 1 4 3 -2 6 -13 5 -11 0 -14 -3 -6 -6z"/>
<path d="M863 600 c28 -22 42 -67 32 -100 -6 -18 -15 -20 -101 -20 -79 0 -96
-3 -101 -17 -7 -19 16 -64 37 -71 11 -4 10 -1 -3 12 -9 10 -17 28 -17 42 0 24
1 24 100 24 l100 0 0 44 c0 33 -7 52 -26 75 -14 17 -30 31 -36 31 -6 0 1 -9
15 -20z"/>
<path d="M1014 608 c-11 -17 6 -22 22 -7 13 14 13 16 -1 16 -9 0 -18 -4 -21
-9z"/>
<path d="M1113 613 c4 -3 0 -15 -10 -25 -15 -17 -15 -18 0 -18 10 0 17 4 17 9
0 5 3 16 6 25 4 10 1 16 -7 16 -7 0 -9 -3 -6 -7z"/>
<path d="M1176 518 c-10 -57 -22 -118 -26 -136 -6 -24 -5 -32 3 -29 13 4 58
249 48 260 -4 4 -16 -39 -25 -95z"/>
<path d="M1732 589 c29 -28 30 -34 25 -85 -10 -94 -64 -152 -149 -155 -32 -2
-32 -2 -4 -6 41 -6 112 23 136 57 27 38 44 119 31 153 -11 29 -45 67 -60 67
-5 0 4 -14 21 -31z"/>
<path d="M1927 600 c-3 -12 -14 -20 -25 -20 -23 0 -26 -8 -41 -94 -14 -78 -14
-93 3 -99 10 -4 12 0 9 14 -3 11 0 54 7 95 12 68 15 74 36 74 19 0 24 5 24 25
0 30 -6 32 -13 5z"/>
<path d="M691 575 c-17 -20 -31 -41 -31 -48 0 -7 6 -3 12 8 6 11 22 32 36 48
14 15 23 27 20 27 -3 0 -20 -16 -37 -35z"/>
<path d="M972 590 c0 -14 2 -19 5 -12 2 6 2 18 0 25 -3 6 -5 1 -5 -13z"/>
<path d="M1269 583 l-24 -28 28 24 c15 14 27 26 27 28 0 8 -8 1 -31 -24z"/>
<path d="M1801 594 c0 -11 3 -14 6 -6 3 7 2 16 -1 19 -3 4 -6 -2 -5 -13z"/>
<path d="M755 576 c-16 -8 -36 -23 -43 -35 -17 -28 -4 -33 79 -29 52 2 64 6
65 21 1 12 1 13 -3 2 -6 -21 -123 -22 -123 0 0 19 33 36 71 37 20 1 26 4 17 9
-17 12 -28 11 -63 -5z"/>
<path d="M1050 577 c-14 -7 -30 -24 -37 -37 -15 -33 -42 -190 -32 -190 8 0 9
6 30 120 10 50 19 71 42 93 33 30 32 32 -3 14z"/>
<path d="M1335 581 c-31 -13 -56 -46 -65 -86 -9 -41 3 -90 25 -99 10 -4 10 2
-2 23 -33 57 11 151 70 151 24 0 28 3 17 10 -17 11 -19 11 -45 1z"/>
<path d="M1625 580 c-60 -24 -94 -115 -61 -165 9 -14 21 -25 27 -25 6 0 3 7
-5 16 -26 26 -21 97 10 133 14 17 32 31 39 31 8 0 17 5 20 10 7 12 -2 12 -30
0z"/>
<path d="M1671 577 c2 -1 13 -9 24 -17 19 -14 19 -14 6 3 -7 9 -18 17 -24 17
-6 0 -8 -1 -6 -3z"/>
<path d="M1827 560 c3 -11 7 -20 9 -20 2 0 4 9 4 20 0 11 -4 20 -9 20 -5 0 -7
-9 -4 -20z"/>
<path d="M1400 565 c0 -5 5 -17 10 -25 5 -8 10 -10 10 -5 0 6 -5 17 -10 25 -5
8 -10 11 -10 5z"/>
<path d="M962 530 c0 -14 2 -19 5 -12 2 6 2 18 0 25 -3 6 -5 1 -5 -13z"/>
<path d="M1713 505 c0 -22 2 -30 4 -17 2 12 2 30 0 40 -3 9 -5 -1 -4 -23z"/>
<path d="M1131 514 c0 -11 3 -14 6 -6 3 7 2 16 -1 19 -3 4 -6 -2 -5 -13z"/>
<path d="M350 500 c-6 -11 -8 -20 -6 -20 3 0 10 9 16 20 6 11 8 20 6 20 -3 0
-10 -9 -16 -20z"/>
<path d="M1511 504 c0 -11 3 -14 6 -6 3 7 2 16 -1 19 -3 4 -6 -2 -5 -13z"/>
<path d="M1822 500 c0 -14 2 -19 5 -12 2 6 2 18 0 25 -3 6 -5 1 -5 -13z"/>
<path d="M651 494 c0 -11 3 -14 6 -6 3 7 2 16 -1 19 -3 4 -6 -2 -5 -13z"/>
<path d="M952 480 c0 -14 2 -19 5 -12 2 6 2 18 0 25 -3 6 -5 1 -5 -13z"/>
<path d="M1221 474 c0 -11 3 -14 6 -6 3 7 2 16 -1 19 -3 4 -6 -2 -5 -13z"/>
<path d="M1411 474 c0 -11 3 -14 6 -6 3 7 2 16 -1 19 -3 4 -6 -2 -5 -13z"/>
<path d="M1505 441 c2 -29 11 -51 26 -65 l23 -21 -17 21 c-10 12 -22 41 -27
65 l-9 44 4 -44z"/>
<path d="M642 450 c0 -14 2 -19 5 -12 2 6 2 18 0 25 -3 6 -5 1 -5 -13z"/>
<path d="M1121 454 c0 -11 3 -14 6 -6 3 7 2 16 -1 19 -3 4 -6 -2 -5 -13z"/>
<path d="M1812 450 c0 -14 2 -19 5 -12 2 6 2 18 0 25 -3 6 -5 1 -5 -13z"/>
<path d="M1696 443 c-6 -14 -5 -15 5 -6 7 7 10 15 7 18 -3 3 -9 -2 -12 -12z"/>
<path d="M942 425 c0 -16 2 -22 5 -12 2 9 2 23 0 30 -3 6 -5 -1 -5 -18z"/>
<path d="M1221 424 c0 -11 3 -14 6 -6 3 7 2 16 -1 19 -3 4 -6 -2 -5 -13z"/>
<path d="M811 410 c-13 -11 -19 -20 -13 -20 5 0 15 7 22 15 7 8 24 15 38 15
25 0 25 0 6 -21 -27 -30 -67 -49 -106 -50 -19 -1 -25 -3 -15 -6 49 -13 147 36
147 73 0 21 -51 17 -79 -6z"/>
<path d="M1371 410 c-13 -11 -19 -20 -14 -20 6 0 18 9 28 20 23 25 17 25 -14
0z"/>
<path d="M651 409 c-1 -9 9 -24 22 -35 22 -19 22 -19 6 1 -9 11 -19 27 -22 35
-5 13 -6 13 -6 -1z"/>
<path d="M1801 399 c0 -15 7 -33 17 -40 15 -12 16 -12 5 1 -6 8 -13 26 -16 40
l-4 25 -2 -26z"/>
<path d="M1111 394 c0 -11 3 -14 6 -6 3 7 2 16 -1 19 -3 4 -6 -2 -5 -13z"/>
<path d="M154 376 c11 -9 24 -16 30 -16 12 0 7 5 -24 19 -24 11 -24 11 -6 -3z"/>
<path d="M758 383 c7 -3 16 -2 19 1 4 3 -2 6 -13 5 -11 0 -14 -3 -6 -6z"/>
<path d="M1378 374 c-9 -10 -34 -21 -55 -25 l-38 -8 40 5 c22 2 48 5 58 6 9 1
17 10 17 20 0 22 -2 22 -22 2z"/>
<path d="M1890 373 c0 -16 -7 -23 -27 -26 -26 -4 -25 -4 5 -6 35 -1 54 21 33
42 -8 8 -11 6 -11 -10z"/>
<path d="M931 364 c0 -11 3 -14 6 -6 3 7 2 16 -1 19 -3 4 -6 -2 -5 -13z"/>
<path d="M117 359 c7 -7 15 -10 18 -7 3 3 -2 9 -12 12 -14 6 -15 5 -6 -5z"/>
<path d="M21 349 c-1 -9 7 -23 17 -30 15 -12 16 -12 6 1 -6 8 -14 22 -17 30
-5 13 -6 12 -6 -1z"/>
<path d="M1782 228 c-12 -6 -25 -23 -29 -36 -5 -20 0 -30 21 -46 78 -61 79
-62 72 -84 -12 -35 -76 -41 -76 -6 0 19 -16 18 -24 -1 -6 -18 22 -35 59 -35
27 0 75 40 75 62 0 21 -12 33 -57 62 -45 27 -55 54 -28 76 17 14 33 6 45 -24
8 -20 8 -20 16 -2 5 13 2 23 -11 32 -22 16 -32 17 -63 2z"/>
<path d="M2220 227 c-17 -9 -26 -22 -28 -44 -3 -28 2 -34 42 -58 52 -30 60
-45 40 -74 -19 -27 -49 -27 -67 0 -10 13 -17 17 -22 9 -23 -37 70 -55 105 -20
33 33 26 66 -22 97 -62 40 -68 51 -42 77 19 19 54 5 54 -22 1 -15 2 -15 11 1
19 32 -29 55 -71 34z"/>
<path d="M1010 223 c25 -10 30 -25 30 -105 0 -63 -3 -79 -17 -87 -14 -8 -10
-10 22 -10 32 0 36 2 23 10 -14 8 -18 24 -18 74 0 36 3 65 8 65 4 -1 30 -30
57 -66 76 -99 73 -100 77 20 3 97 1 106 -15 106 -10 0 -16 -3 -14 -8 8 -12 12
-127 6 -132 -4 -3 -31 27 -61 65 -43 56 -60 70 -83 72 -17 1 -23 0 -15 -4z"/>
<path d="M1300 204 c-49 -131 -64 -165 -78 -174 -13 -7 -8 -9 23 -10 26 0 35
3 26 9 -9 6 -11 18 -6 40 6 30 9 32 48 29 35 -3 43 -7 51 -31 8 -22 7 -30 -4
-37 -11 -7 -2 -10 29 -10 38 0 42 2 28 13 -9 6 -32 50 -53 97 -45 104 -50 111
-64 74z m28 -49 c16 -35 16 -35 -17 -35 -29 0 -30 1 -20 30 13 37 22 38 37 5z"/>
<path d="M1468 223 c8 -3 12 -33 12 -98 0 -65 -4 -95 -12 -98 -7 -3 7 -6 32
-6 35 0 41 2 28 10 -15 8 -18 25 -18 99 0 61 4 90 13 93 6 3 -6 5 -28 5 -22 0
-34 -2 -27 -5z"/>
<path d="M1578 223 c16 -6 17 -174 0 -191 -9 -9 4 -12 59 -12 55 0 72 3 77 16
13 35 5 43 -19 18 -16 -16 -34 -24 -48 -22 -21 3 -22 9 -25 92 -2 65 1 92 10
98 8 5 -3 7 -27 7 -22 0 -34 -3 -27 -6z"/>
<path d="M2338 218 c7 -7 12 -44 12 -95 0 -68 -3 -84 -17 -92 -14 -8 -8 -10
27 -10 35 0 41 2 28 10 -15 8 -18 25 -18 99 0 88 1 90 23 90 27 0 57 -28 57
-54 0 -9 -12 -28 -26 -41 -34 -31 -9 -34 30 -4 31 25 34 61 6 89 -15 15 -33
20 -77 20 -44 0 -54 -3 -45 -12z"/>
<path d="M2500 139 c-18 -50 -39 -97 -47 -105 -12 -12 -9 -14 23 -14 33 0 36
2 20 13 -14 10 -15 18 -7 40 9 23 16 27 49 27 32 0 41 -4 51 -27 11 -23 10
-29 -5 -40 -16 -11 -12 -13 26 -13 40 0 42 1 28 18 -9 9 -34 56 -56 105 -22
48 -43 87 -45 87 -3 0 -19 -41 -37 -91z m55 4 c5 -20 3 -23 -19 -23 -28 0 -32
10 -15 42 12 22 23 16 34 -19z"/>
<path d="M1994 165 c-4 -8 -1 -21 5 -29 8 -10 8 -16 -4 -26 -30 -25 -11 -71
30 -69 16 1 17 2 3 6 -23 6 -34 49 -17 69 10 13 10 17 -1 24 -7 4 -10 15 -7
24 4 9 4 16 1 16 -2 0 -7 -7 -10 -15z"/>
<path d="M2087 145 c-4 -8 -13 -15 -20 -15 -8 0 -20 -7 -27 -15 -23 -27 -6
-24 30 5 19 16 32 31 29 35 -4 3 -9 -1 -12 -10z"/>
<path d="M2070 90 c13 -8 13 -13 1 -32 -12 -22 -12 -22 4 -6 19 18 14 48 -7
48 -9 0 -8 -3 2 -10z"/>
</g>
</svg>
